<?xml version="1.0" encoding="UTF-8"?>
<svg id="Layer_1" data-name="Layer 1" xmlns="http://www.w3.org/2000/svg" viewBox="0 0 88.2 88.2">
  <defs>
    <style>
      .cls-1 {
        isolation: isolate;
        opacity: .5;
      }

      .cls-1, .cls-2, .cls-3 {
        stroke-width: 0px;
      }

      .cls-1, .cls-3 {
        fill: #fff;
      }

      .cls-2 {
        fill: #55c7ff;
      }
    </style>
  </defs>
  <path class="cls-2" d="m52.64,37.43h-.85v-3.3c0-2.19-1.77-3.96-3.96-3.96h-7.47c-2.19,0-3.96,1.77-3.96,3.96v3.3h-.85c-.92,0-1.67.75-1.67,1.67v.21c0,.92.75,1.67,1.67,1.67h.85v14.62c0,1.54,1.25,2.8,2.8,2.8h9.8c1.54,0,2.8-1.25,2.8-2.8v-14.62h.85c.92,0,1.67-.75,1.67-1.67v-.21c0-.92-.75-1.67-1.68-1.67Z"/>
  <path id="front_windshield" data-name="front windshield" class="cls-3" d="m38.02,37.75c.39,1.93.83,4.08,1.31,6.03,1.54-.5,3.17-.64,4.77-.76,1.6.12,3.24.26,4.77.76.24-.96.45-1.93.66-2.9.33-1.55.61-2.95.65-3.13l-.02-.24c-.16-.7-1.06-2.32-6.06-2.32-5.12.04-5.98,1.56-6.08,2.56Z"/>
  <g>
    <path class="cls-2" d="m43.19,27.43c0-.1-.52-10.17-8.44-13.72l.82-1.82c9.07,4.07,9.6,15,9.62,15.47l-2,.08Z"/>
    <polygon class="cls-2" points="28.23 11.43 38.84 9.7 35.62 13.13 37.01 17.62 28.23 11.43"/>
  </g>
  <path class="cls-3" d="m42.74,46.29h2.45l1.81,9.71h-1.98l-.32-2.05h-1.43l-.34,2.05h-2.03l1.83-9.71Zm1.75,6.38l-.52-3.79-.52,3.79h1.03Z"/>
</svg>
