<?xml version="1.0" encoding="UTF-8"?>
<svg id="Layer_1" data-name="Layer 1" xmlns="http://www.w3.org/2000/svg" viewBox="0 0 88.2 88.2">
  <defs>
    <style>
      .cls-1, .cls-2, .cls-3 {
        stroke-width: 0px;
      }

      .cls-1, .cls-3 {
        fill: #fff;
      }

      .cls-2 {
        fill: #ffc200;
      }
    </style>
  </defs>
  <path class="cls-2" d="m52.64,37.43h-.85v-3.3c0-2.19-1.77-3.96-3.96-3.96h-7.47c-2.19,0-3.96,1.77-3.96,3.96v3.3h-.85c-.92,0-1.67.75-1.67,1.67v.21c0,.92.75,1.67,1.67,1.67h.85v14.62c0,1.54,1.25,2.8,2.8,2.8h9.8c1.54,0,2.8-1.25,2.8-2.8v-14.62h.85c.92,0,1.67-.75,1.67-1.67v-.21c0-.92-.75-1.67-1.68-1.67Z"/>
  <path id="front_windshield" data-name="front windshield" class="cls-3" d="m38.02,37.75c.39,1.93.83,4.08,1.31,6.03,1.54-.5,3.17-.64,4.77-.76,1.6.12,3.24.26,4.77.76.24-.96.45-1.93.66-2.9.33-1.55.61-2.95.65-3.13l-.02-.24c-.16-.7-1.06-2.32-6.06-2.32-5.12.04-5.98,1.56-6.08,2.56Z"/>
  <g>
    <rect class="cls-2" x="43.01" y="14.91" width="2" height="12.48"/>
    <polygon class="cls-2" points="44.02 7.85 48.08 17.8 44.02 15.44 39.95 17.8 44.02 7.85"/>
  </g>
  <path class="cls-1" d="m41.14,46.29h2.53c1.67,0,3.09.38,3.09,2.54,0,1.18-.54,1.79-1.43,1.95,1.13.14,1.73.96,1.73,2.34,0,2.02-1.07,2.88-2.94,2.88h-2.99v-9.71Zm2.57,3.89c.97,0,1.18-.47,1.18-1.28,0-.77-.42-1.16-1.22-1.16h-.37v2.45h.42Zm.04,4.33c.95,0,1.25-.48,1.25-1.42,0-1.09-.32-1.5-1.26-1.5h-.44v2.91h.46Z"/>
</svg>
