<svg
  xmlns="http://www.w3.org/2000/svg"
  version="1.1"
  viewBox="0 0 40 40"
  width="40"
  height="40"
>
  <g transform="matrix(1.6666666666666667,0,0,1.6666666666666667,0,0)">
    <path
      d="M13.187,7.03c0.825,0.003,1.496-0.662,1.499-1.487s-0.662-1.496-1.487-1.499c-0.825-0.003-1.496,0.662-1.499,1.487 c0,0.002,0,0.005,0,0.007C11.701,6.36,12.365,7.027,13.187,7.03z M23.415,3L21,0.585C20.625,0.21,20.116,0,19.586,0H8 C6.895,0,6,0.895,6,2v7.275C5.999,9.41,6.107,9.522,6.242,9.525C6.608,9.531,7.28,9.559,7.727,9.608 c0.135,0.015,0.257-0.082,0.272-0.217C8,9.38,8,9.37,8,9.36V2.5C8,2.224,8.224,2,8.5,2h10.879c0.132,0,0.259,0.053,0.353,0.146 l2.122,2.122C21.947,4.362,22,4.489,22,4.621V18c0,0.276-0.224,0.5-0.5,0.5h-6.858c-0.121,0-0.224,0.09-0.241,0.21 c-0.075,0.496-0.197,0.985-0.364,1.458c-0.048,0.126,0.015,0.267,0.141,0.315c0.028,0.011,0.057,0.016,0.087,0.016H22 c1.105,0,2-0.895,2-2V4.414C24,3.884,23.79,3.375,23.415,3z M20.477,12.9c0.033-0.059,0.03-0.132-0.006-0.189l-3.236-5.175 c-0.109-0.175-0.339-0.228-0.514-0.119c-0.048,0.03-0.089,0.071-0.119,0.119l-1.81,2.9c-0.055,0.088-0.17,0.114-0.258,0.059 c-0.024-0.015-0.044-0.035-0.059-0.059L13.831,9.4c-0.111-0.175-0.343-0.226-0.518-0.115c-0.046,0.03-0.086,0.069-0.115,0.115 l-1.246,1.993c-0.062,0.099-0.044,0.229,0.042,0.308c0.387,0.365,0.736,0.767,1.044,1.2c0.046,0.064,0.121,0.102,0.2,0.1h7.079 C20.385,12.999,20.446,12.96,20.477,12.9z M6.5,11C2.91,11,0,13.91,0,17.5S2.91,24,6.5,24s6.5-2.91,6.5-6.5 C12.996,13.912,10.088,11.004,6.5,11z M7.738,17.677l1.414,1.414c0.298,0.288,0.306,0.763,0.018,1.061 c-0.288,0.298-0.763,0.306-1.061,0.018c-0.006-0.006-0.012-0.012-0.018-0.018l-1.414-1.414c-0.098-0.097-0.256-0.097-0.354,0 l-1.414,1.414c-0.288,0.298-0.762,0.307-1.06,0.019c-0.298-0.288-0.307-0.762-0.019-1.06c0.006-0.006,0.012-0.012,0.018-0.018 l1.414-1.414c0.098-0.098,0.098-0.256,0-0.354c0,0,0,0,0,0l-1.414-1.414c-0.288-0.298-0.279-0.773,0.019-1.06 c0.291-0.281,0.752-0.28,1.042,0l1.414,1.414c0.098,0.097,0.256,0.097,0.354,0l1.414-1.414c0.298-0.288,0.773-0.28,1.061,0.018 c0.281,0.291,0.281,0.751,0,1.042l-1.414,1.414C7.64,17.421,7.64,17.579,7.738,17.677C7.738,17.677,7.738,17.677,7.738,17.677z"
      stroke="none"
      fill="#000000"
      stroke-width="0"
      stroke-linecap="round"
      stroke-linejoin="round"
    ></path>
  </g>
</svg>
