<svg xmlns="http://www.w3.org/2000/svg" x="0px" y="0px" viewBox="0,0,256,256">
  <g fill="currentColor" fill-rule="nonzero" stroke="none" stroke-width="1" stroke-linecap="butt" stroke-linejoin="miter" stroke-miterlimit="10" stroke-dasharray="" stroke-dashoffset="0" font-family="none" font-weight="none" font-size="none" text-anchor="none" style="mix-blend-mode: normal"><g transform="scale(10.66667,10.66667)"><path d="M10,5.3418c-0.25587,0 -0.51203,0.09942 -0.70703,0.29492l-5.65625,5.65625c-0.391,0.391 -0.391,1.02406 0,1.41406l5.65625,5.65625c0.391,0.391 1.02406,0.391 1.41406,0l0.08594,-0.08594c0.391,-0.391 0.391,-1.02406 0,-1.41406l-3.86328,-3.86328h13.07031c0.552,0 1,-0.448 1,-1c0,-0.552 -0.448,-1 -1,-1h-13.07031l3.86328,-3.86328c0.391,-0.391 0.391,-1.02406 0,-1.41406l-0.08594,-0.08594c-0.1955,-0.1955 -0.45116,-0.29492 -0.70703,-0.29492z"></path></g></g>
</svg>
