<svg xmlns="http://www.w3.org/2000/svg" x="0px" y="0px" viewBox="0,0,256,256">
  <g fill="currentColor" fill-rule="nonzero" stroke="none" stroke-width="1" stroke-linecap="butt" stroke-linejoin="miter" stroke-miterlimit="10" stroke-dasharray="" stroke-dashoffset="0" font-family="none" font-weight="none" font-size="none" text-anchor="none" style="mix-blend-mode: normal"><g transform="scale(10.66667,10.66667)"><path d="M19,3h-4.184c-0.413,-1.163 -1.512,-2 -2.816,-2c-1.304,0 -2.403,0.837 -2.816,2h-4.184c-1.105,0 -2,0.895 -2,2v14c0,1.105 0.895,2 2,2h14c1.105,0 2,-0.895 2,-2v-14c0,-1.105 -0.895,-2 -2,-2zM11,17h-4c-0.552,0 -1,-0.448 -1,-1v0c0,-0.552 0.448,-1 1,-1h4c0.552,0 1,0.448 1,1v0c0,0.552 -0.448,1 -1,1zM11,11h-4c-0.552,0 -1,-0.448 -1,-1v0c0,-0.552 0.448,-1 1,-1h4c0.552,0 1,0.448 1,1v0c0,0.552 -0.448,1 -1,1zM12,5c-0.552,0 -1,-0.448 -1,-1c0,-0.552 0.448,-1 1,-1c0.552,0 1,0.448 1,1c0,0.552 -0.448,1 -1,1zM16.707,16.707c-0.187,0.188 -0.442,0.293 -0.707,0.293h-1c-0.552,0 -1,-0.448 -1,-1v0c0,-0.552 0.448,-1 1,-1h0.586l1.293,-1.293c0.391,-0.391 1.024,-0.391 1.414,0v0c0.391,0.391 0.391,1.024 0,1.414zM16,11h-1c-0.552,0 -1,-0.448 -1,-1v0c0,-0.552 0.448,-1 1,-1h0.586l1.293,-1.293c0.391,-0.391 1.024,-0.391 1.414,0v0c0.391,0.391 0.391,1.024 0,1.414l-1.586,1.586c-0.187,0.188 -0.442,0.293 -0.707,0.293z"></path></g></g>
</svg>
