<svg xmlns="http://www.w3.org/2000/svg" x="0px" y="0px" viewBox="0,0,256,256">
  <g fill="currentColor" fill-rule="nonzero" stroke="none" stroke-width="1" stroke-linecap="butt" stroke-linejoin="miter" stroke-miterlimit="10" stroke-dasharray="" stroke-dashoffset="0" font-family="none" font-weight="none" font-size="none" text-anchor="none" style="mix-blend-mode: normal"><g transform="scale(10.66667,10.66667)"><path d="M22.445,9.168l-1.384,0.923l-0.001,-0.001l-1.87,-2.23l0.7,-1.41c0.25,-0.5 0.05,-1.1 -0.44,-1.34l-2,-1c-0.11,-0.06 -0.23,-0.09 -0.36,-0.11l-10.72,-1c-0.45,-0.04 -0.85,0.21 -1.02,0.61l-1.58,3.74l-0.002,0.004l-1.061,-1.061l-1.414,1.414l1.639,1.639l-0.002,0.004l-0.85,2.01c-0.05,0.12 -0.08,0.26 -0.08,0.39v6.25v2c0,0.552 0.448,1 1,1h2l-0.005,-2h14.01l-0.005,2h2c0.55,0 1,-0.45 1,-1v-2v-6.132l1.555,-1.036zM7.5,15c-0.83,0 -1.5,-0.67 -1.5,-1.5c0,-0.83 0.67,-1.5 1.5,-1.5c0.83,0 1.5,0.67 1.5,1.5c0,0.83 -0.67,1.5 -1.5,1.5zM16.5,15c-0.83,0 -1.5,-0.67 -1.5,-1.5h3c0,0.83 -0.67,1.5 -1.5,1.5zM14,11l-8.52,-2.55v-0.01l1.43,-3.38l9.81,0.92l0.94,0.47l-0.55,1.1c-0.18,0.36 -0.13,0.79 0.13,1.09l1.98,2.36z"></path></g></g>
</svg>
