<svg xmlns="http://www.w3.org/2000/svg" x="0px" y="0px" viewBox="0,0,256,256">
  <g fill="currentColor" fill-rule="nonzero" stroke="none" stroke-width="1" stroke-linecap="butt" stroke-linejoin="miter" stroke-miterlimit="10" stroke-dasharray="" stroke-dashoffset="0" font-family="none" font-weight="none" font-size="none" text-anchor="none" style="mix-blend-mode: normal"><g transform="scale(10.66667,10.66667)"><path d="M18.947,5.013c-0.207,-0.606 -0.778,-1.013 -1.418,-1.013h-11.058c-0.64,0 -1.211,0.407 -1.418,1.013l-2.053,5.987v8c0,0.552 0.448,1 1,1h1c0.552,0 1,-0.448 1,-1v-1h12v1c0,0.552 0.448,1 1,1h1c0.552,0 1,-0.448 1,-1v-8zM6.829,6h10.343l1.371,4h-13.086zM6.5,15c-0.828,0 -1.5,-0.672 -1.5,-1.5c0,-0.828 0.672,-1.5 1.5,-1.5c0.828,0 1.5,0.672 1.5,1.5c0,0.828 -0.672,1.5 -1.5,1.5zM17.5,15c-0.828,0 -1.5,-0.672 -1.5,-1.5c0,-0.828 0.672,-1.5 1.5,-1.5c0.828,0 1.5,0.672 1.5,1.5c0,0.828 -0.672,1.5 -1.5,1.5z"></path></g></g>
</svg>
