<svg xmlns="http://www.w3.org/2000/svg" x="0px" y="0px" viewBox="0,0,256,256">
  <g fill="currentColor" fill-rule="nonzero" stroke="none" stroke-width="1" stroke-linecap="butt" stroke-linejoin="miter" stroke-miterlimit="10" stroke-dasharray="" stroke-dashoffset="0" font-family="none" font-weight="none" font-size="none" text-anchor="none" style="mix-blend-mode: normal"><g transform="scale(10.66667,10.66667)"><path d="M22.984,10.777l-0.001,-0.005c-0.135,-0.539 -0.683,-0.865 -1.221,-0.726l-2.117,0.512c-0.338,-1.202 -0.913,-3.055 -1.556,-4.433c-0.324,-0.694 -1.033,-1.125 -1.799,-1.125h-0.29v-1c0,-0.552 -0.448,-1 -1,-1h-1c-0.552,0 -1,0.448 -1,1v1h-2v-1c0,-0.552 -0.448,-1 -1,-1h-1c-0.552,0 -1,0.448 -1,1v1h-0.29c-0.766,0 -1.475,0.431 -1.799,1.125c-0.643,1.378 -1.218,3.232 -1.556,4.433l-2.117,-0.513c-0.534,-0.131 -1.074,0.194 -1.207,0.728c-0.134,0.537 0.195,1.081 0.733,1.212l0.849,0.2c-0.386,0.37 -0.613,0.882 -0.613,1.435v6.644c0,0.406 0.33,0.736 0.736,0.736h1.262c0.553,0 1.001,-0.449 1,-1.002l-0.003,-1.6c1.593,0.275 3.581,0.602 7.005,0.602c3.42,0 5.408,-0.326 7,-0.601v1.601c0,0.552 0.448,1 1,1h1.25c0.412,0 0.75,-0.338 0.75,-0.75v-6.63c0,-0.553 -0.227,-1.065 -0.614,-1.436l0.885,-0.198c0.528,-0.14 0.846,-0.678 0.713,-1.209zM7,16c-0.55,0 -1,-0.45 -1,-1c0,-0.55 0.45,-1 1,-1c0.55,0 1,0.45 1,1c0,0.55 -0.45,1 -1,1zM6.31,11c0.32,-1.12 0.84,-2.78 1.4,-4h8.58c0.56,1.22 1.08,2.88 1.4,4zM17,16c-0.55,0 -1,-0.45 -1,-1c0,-0.55 0.45,-1 1,-1c0.55,0 1,0.45 1,1c0,0.55 -0.45,1 -1,1z"></path></g></g>
</svg>
