<svg xmlns="http://www.w3.org/2000/svg" x="0px" y="0px" viewBox="0,0,256,256">
  <g fill="currentColor" fill-rule="nonzero" stroke="none" stroke-width="1" stroke-linecap="butt" stroke-linejoin="miter" stroke-miterlimit="10" stroke-dasharray="" stroke-dashoffset="0" font-family="none" font-weight="none" font-size="none" text-anchor="none" style="mix-blend-mode: normal"><g transform="scale(10.66667,10.66667)"><path d="M3,2l-1,8l5,-7zM15,2l-2,3l-3,-1l1,3v2l3,-1l3,1l-2,-3zM22,2l-4,2l3,4zM8,8l-2,5l-4,1l3.05078,2.44531l-2.05078,4.55469l4.4707,-2l2.5293,3l1,-4h4l-2.6875,-3l1.6875,-3h-4zM19.58203,13l-2.05469,0.52734l-0.52734,1.97266l1.5,1.5l1.97266,-0.52734l0.52734,-2.05469zM21,19l-3,2l4,1z"></path></g></g>
</svg>
