<svg xmlns="http://www.w3.org/2000/svg" x="0px" y="0px" viewBox="0,0,256,256">
  <g fill="currentColor" fill-rule="nonzero" stroke="none" stroke-width="1" stroke-linecap="butt" stroke-linejoin="miter" stroke-miterlimit="10" stroke-dasharray="" stroke-dashoffset="0" font-family="none" font-weight="none" font-size="none" text-anchor="none" style="mix-blend-mode: normal"><g transform="scale(10.66667,10.66667)"><path d="M12,4c-6.858,0 -10.1143,5.87864 -10.9043,7.55664c-0.132,0.28 -0.132,0.60476 0,0.88476c0.79,1.679 4.0463,7.55859 10.9043,7.55859c6.834,0 10.09248,-5.83706 10.89648,-7.53906c0.138,-0.293 0.138,-0.62888 0,-0.92188c-0.804,-1.702 -4.06248,-7.53906 -10.89648,-7.53906zM12,7c2.761,0 5,2.239 5,5c0,2.761 -2.239,5 -5,5c-2.761,0 -5,-2.239 -5,-5c0,-2.761 2.239,-5 5,-5zM12,9c-1.65685,0 -3,1.34315 -3,3c0,1.65685 1.34315,3 3,3c1.65685,0 3,-1.34315 3,-3c0,-1.65685 -1.34315,-3 -3,-3z"></path></g></g>
</svg>
