<svg xmlns="http://www.w3.org/2000/svg" x="0px" y="0px" viewBox="0,0,256,256">
  <g fill="currentColor" fill-rule="nonzero" stroke="none" stroke-width="1" stroke-linecap="butt" stroke-linejoin="miter" stroke-miterlimit="10" stroke-dasharray="" stroke-dashoffset="0" font-family="none" font-weight="none" font-size="none" text-anchor="none" style="mix-blend-mode: normal"><g transform="scale(8.53333,8.53333)"><path d="M15,3c-7.18,0 -13,4.925 -13,11c0,3.368 1.79333,6.37848 4.61133,8.39648c0.07195,1.53598 -0.16605,3.6569 -2.28516,4.63477c-0.0013,0.00065 -0.00261,0.0013 -0.00391,0.00195c-0.19383,0.07371 -0.32204,0.25942 -0.32227,0.4668c0,0.27614 0.22386,0.5 0.5,0.5c0.01434,-0.00003 0.02868,-0.00069 0.04297,-0.00195c2.43403,-0.0156 4.5003,-1.33101 5.92578,-2.7207c0.452,-0.441 1.08212,-0.65802 1.70313,-0.54102c0.91,0.173 1.85613,0.26367 2.82813,0.26367c7.18,0 13,-4.925 13,-11c0,-6.075 -5.82,-11 -13,-11zM15,7c2.206,0 4,1.794 4,4c0,1.715 -1.07064,2.704 -1.93164,3.5c-0.662,0.611 -1.06836,1.012 -1.06836,1.5h-2c0,-1.389 0.94894,-2.2657 1.71094,-2.9707c0.799,-0.738 1.28906,-1.2303 1.28906,-2.0293c0,-1.103 -0.897,-2 -2,-2c-1.103,0 -2,0.897 -2,2h-2c0,-2.206 1.794,-4 4,-4zM15,18.5c0.828,0 1.5,0.672 1.5,1.5c0,0.828 -0.672,1.5 -1.5,1.5c-0.828,0 -1.5,-0.672 -1.5,-1.5c0,-0.828 0.672,-1.5 1.5,-1.5z"></path></g></g>
</svg>
