<svg xmlns="http://www.w3.org/2000/svg" x="0px" y="0px" viewBox="0,0,256,256">
  <g fill="currentColor">
    <g transform="scale(10.66667,10.66667)">
      <path
        d="M5,3c-1.105,0 -2,0.895 -2,2v14c0,1.105 0.895,2 2,2h4.51758l-0.01758,0.01758l1.61523,1.61719c0.488,0.488 1.28153,0.488 1.76953,0l1.61523,-1.61719l-0.01758,-0.01758h4.51758c1.105,0 2,-0.895 2,-2v-14c0,-1.105 -0.895,-2 -2,-2zM11.5,7h1c0.276,0 0.5,0.224 0.5,0.5v1c0,0.276 -0.224,0.5 -0.5,0.5h-1c-0.276,0 -0.5,-0.224 -0.5,-0.5v-1c0,-0.276 0.224,-0.5 0.5,-0.5zM12,11c0.552,0 1,0.448 1,1v4c0,0.552 -0.448,1 -1,1c-0.552,0 -1,-0.448 -1,-1v-4c0,-0.552 0.448,-1 1,-1z"></path>
    </g>
  </g>
</svg>
