<svg xmlns="http://www.w3.org/2000/svg" x="0px" y="0px" viewBox="0,0,256,256">
  <g fill="currentColor" fill-rule="nonzero" stroke="none" stroke-width="1" stroke-linecap="butt" stroke-linejoin="miter" stroke-miterlimit="10" stroke-dasharray="" stroke-dashoffset="0" font-family="none" font-weight="none" font-size="none" text-anchor="none" style="mix-blend-mode: normal"><g transform="scale(10.66667,10.66667)"><path d="M12,2c-5.514,0 -10,4.486 -10,10c0,5.514 4.486,10 10,10c5.514,0 10,-4.486 10,-10c0,-5.514 -4.486,-10 -10,-10zM16.766,12.565l-2.4,2.4c-0.154,0.154 -0.358,0.235 -0.566,0.235c-0.103,0 -0.207,-0.02 -0.306,-0.061c-0.299,-0.124 -0.494,-0.416 -0.494,-0.739v-1.4h-5c-0.552,0 -1,-0.448 -1,-1v0c0,-0.552 0.448,-1 1,-1h5v-1.4c0,-0.323 0.195,-0.615 0.494,-0.739c0.3,-0.123 0.643,-0.055 0.872,0.173l2.4,2.4c0.312,0.313 0.312,0.819 0,1.131z"></path></g></g>
</svg>
