<svg xmlns="http://www.w3.org/2000/svg" x="0px" y="0px" viewBox="0,0,256,256">
  <g fill="currentColor" fill-rule="nonzero" stroke="none" stroke-width="1" stroke-linecap="butt" stroke-linejoin="miter" stroke-miterlimit="10" stroke-dasharray="" stroke-dashoffset="0" font-family="none" font-weight="none" font-size="none" text-anchor="none" style="mix-blend-mode: normal"><g transform="scale(10.66667,10.66667)"><path d="M4,3c-0.552,0 -1,0.448 -1,1v4c0,0.552 0.448,1 1,1h4c0.552,0 1,-0.448 1,-1v-4c0,-0.552 -0.448,-1 -1,-1zM11,3v2h2v-2zM16,3c-0.552,0 -1,0.448 -1,1v4c0,0.552 0.448,1 1,1h4c0.552,0 1,-0.448 1,-1v-4c0,-0.552 -0.448,-1 -1,-1zM5,5h2v2h-2zM17,5h2v2h-2zM11,7v2h2v-2zM3,11v2h2v-2zM7,11v2h2v-2zM11,11v2h2v-2zM13,13v2h2v-2zM15,13h2v-2h-2zM17,13v2h2v-2zM19,13h2v-2h-2zM19,15v2h2v-2zM19,17h-2v2h2zM19,19v2h2v-2zM17,19h-2v2h2zM15,19v-2h-2v2zM13,19h-2v2h2zM13,17v-2h-2v2zM15,17h2v-2h-2zM4,15c-0.552,0 -1,0.448 -1,1v4c0,0.552 0.448,1 1,1h4c0.552,0 1,-0.448 1,-1v-4c0,-0.552 -0.448,-1 -1,-1zM5,17h2v2h-2z"></path></g></g>
</svg>
