<?xml version="1.0" encoding="UTF-8" standalone="no"?><svg xmlns="http://www.w3.org/2000/svg" xmlns:xlink="http://www.w3.org/1999/xlink"><symbol id="404" xmlns="http://www.w3.org/2000/svg" version="1.1" viewBox="0 0 40 40" width="40" height="40"><g transform="matrix(1.6666666666666667,0,0,1.6666666666666667,0,0)"><path d="M13.187,7.03c0.825,0.003,1.496-0.662,1.499-1.487s-0.662-1.496-1.487-1.499c-0.825-0.003-1.496,0.662-1.499,1.487 c0,0.002,0,0.005,0,0.007C11.701,6.36,12.365,7.027,13.187,7.03z M23.415,3L21,0.585C20.625,0.21,20.116,0,19.586,0H8 C6.895,0,6,0.895,6,2v7.275C5.999,9.41,6.107,9.522,6.242,9.525C6.608,9.531,7.28,9.559,7.727,9.608 c0.135,0.015,0.257-0.082,0.272-0.217C8,9.38,8,9.37,8,9.36V2.5C8,2.224,8.224,2,8.5,2h10.879c0.132,0,0.259,0.053,0.353,0.146 l2.122,2.122C21.947,4.362,22,4.489,22,4.621V18c0,0.276-0.224,0.5-0.5,0.5h-6.858c-0.121,0-0.224,0.09-0.241,0.21 c-0.075,0.496-0.197,0.985-0.364,1.458c-0.048,0.126,0.015,0.267,0.141,0.315c0.028,0.011,0.057,0.016,0.087,0.016H22 c1.105,0,2-0.895,2-2V4.414C24,3.884,23.79,3.375,23.415,3z M20.477,12.9c0.033-0.059,0.03-0.132-0.006-0.189l-3.236-5.175 c-0.109-0.175-0.339-0.228-0.514-0.119c-0.048,0.03-0.089,0.071-0.119,0.119l-1.81,2.9c-0.055,0.088-0.17,0.114-0.258,0.059 c-0.024-0.015-0.044-0.035-0.059-0.059L13.831,9.4c-0.111-0.175-0.343-0.226-0.518-0.115c-0.046,0.03-0.086,0.069-0.115,0.115 l-1.246,1.993c-0.062,0.099-0.044,0.229,0.042,0.308c0.387,0.365,0.736,0.767,1.044,1.2c0.046,0.064,0.121,0.102,0.2,0.1h7.079 C20.385,12.999,20.446,12.96,20.477,12.9z M6.5,11C2.91,11,0,13.91,0,17.5S2.91,24,6.5,24s6.5-2.91,6.5-6.5 C12.996,13.912,10.088,11.004,6.5,11z M7.738,17.677l1.414,1.414c0.298,0.288,0.306,0.763,0.018,1.061 c-0.288,0.298-0.763,0.306-1.061,0.018c-0.006-0.006-0.012-0.012-0.018-0.018l-1.414-1.414c-0.098-0.097-0.256-0.097-0.354,0 l-1.414,1.414c-0.288,0.298-0.762,0.307-1.06,0.019c-0.298-0.288-0.307-0.762-0.019-1.06c0.006-0.006,0.012-0.012,0.018-0.018 l1.414-1.414c0.098-0.098,0.098-0.256,0-0.354c0,0,0,0,0,0l-1.414-1.414c-0.288-0.298-0.279-0.773,0.019-1.06 c0.291-0.281,0.752-0.28,1.042,0l1.414,1.414c0.098,0.097,0.256,0.097,0.354,0l1.414-1.414c0.298-0.288,0.773-0.28,1.061,0.018 c0.281,0.291,0.281,0.751,0,1.042l-1.414,1.414C7.64,17.421,7.64,17.579,7.738,17.677C7.738,17.677,7.738,17.677,7.738,17.677z" stroke-width="0" stroke-linecap="round" stroke-linejoin="round"></path></g></symbol><symbol id="ballot-check" xmlns="http://www.w3.org/2000/svg" x="0px" y="0px" viewBox="0,0,256,256"><g fill-rule="nonzero" stroke-width="1" stroke-linecap="butt" stroke-linejoin="miter" stroke-miterlimit="10" stroke-dasharray="0" stroke-dashoffset="0" font-family="none" font-weight="none" font-size="none" text-anchor="none" style="mix-blend-mode: normal"><g transform="scale(10.66667,10.66667)"><path d="M19,3h-4.184c-0.413,-1.163 -1.512,-2 -2.816,-2c-1.304,0 -2.403,0.837 -2.816,2h-4.184c-1.105,0 -2,0.895 -2,2v14c0,1.105 0.895,2 2,2h14c1.105,0 2,-0.895 2,-2v-14c0,-1.105 -0.895,-2 -2,-2zM11,17h-4c-0.552,0 -1,-0.448 -1,-1v0c0,-0.552 0.448,-1 1,-1h4c0.552,0 1,0.448 1,1v0c0,0.552 -0.448,1 -1,1zM11,11h-4c-0.552,0 -1,-0.448 -1,-1v0c0,-0.552 0.448,-1 1,-1h4c0.552,0 1,0.448 1,1v0c0,0.552 -0.448,1 -1,1zM12,5c-0.552,0 -1,-0.448 -1,-1c0,-0.552 0.448,-1 1,-1c0.552,0 1,0.448 1,1c0,0.552 -0.448,1 -1,1zM16.707,16.707c-0.187,0.188 -0.442,0.293 -0.707,0.293h-1c-0.552,0 -1,-0.448 -1,-1v0c0,-0.552 0.448,-1 1,-1h0.586l1.293,-1.293c0.391,-0.391 1.024,-0.391 1.414,0v0c0.391,0.391 0.391,1.024 0,1.414zM16,11h-1c-0.552,0 -1,-0.448 -1,-1v0c0,-0.552 0.448,-1 1,-1h0.586l1.293,-1.293c0.391,-0.391 1.024,-0.391 1.414,0v0c0.391,0.391 0.391,1.024 0,1.414l-1.586,1.586c-0.187,0.188 -0.442,0.293 -0.707,0.293z"></path></g></g></symbol><symbol id="car" xmlns="http://www.w3.org/2000/svg" x="0px" y="0px" viewBox="0,0,256,256"><g fill-rule="nonzero" stroke-width="1" stroke-linecap="butt" stroke-linejoin="miter" stroke-miterlimit="10" stroke-dasharray="0" stroke-dashoffset="0" font-family="none" font-weight="none" font-size="none" text-anchor="none" style="mix-blend-mode: normal"><g transform="scale(10.66667,10.66667)"><path d="M22.984,10.777l-0.001,-0.005c-0.135,-0.539 -0.683,-0.865 -1.221,-0.726l-2.117,0.512c-0.338,-1.202 -0.913,-3.055 -1.556,-4.433c-0.324,-0.694 -1.033,-1.125 -1.799,-1.125h-0.29v-1c0,-0.552 -0.448,-1 -1,-1h-1c-0.552,0 -1,0.448 -1,1v1h-2v-1c0,-0.552 -0.448,-1 -1,-1h-1c-0.552,0 -1,0.448 -1,1v1h-0.29c-0.766,0 -1.475,0.431 -1.799,1.125c-0.643,1.378 -1.218,3.232 -1.556,4.433l-2.117,-0.513c-0.534,-0.131 -1.074,0.194 -1.207,0.728c-0.134,0.537 0.195,1.081 0.733,1.212l0.849,0.2c-0.386,0.37 -0.613,0.882 -0.613,1.435v6.644c0,0.406 0.33,0.736 0.736,0.736h1.262c0.553,0 1.001,-0.449 1,-1.002l-0.003,-1.6c1.593,0.275 3.581,0.602 7.005,0.602c3.42,0 5.408,-0.326 7,-0.601v1.601c0,0.552 0.448,1 1,1h1.25c0.412,0 0.75,-0.338 0.75,-0.75v-6.63c0,-0.553 -0.227,-1.065 -0.614,-1.436l0.885,-0.198c0.528,-0.14 0.846,-0.678 0.713,-1.209zM7,16c-0.55,0 -1,-0.45 -1,-1c0,-0.55 0.45,-1 1,-1c0.55,0 1,0.45 1,1c0,0.55 -0.45,1 -1,1zM6.31,11c0.32,-1.12 0.84,-2.78 1.4,-4h8.58c0.56,1.22 1.08,2.88 1.4,4zM17,16c-0.55,0 -1,-0.45 -1,-1c0,-0.55 0.45,-1 1,-1c0.55,0 1,0.45 1,1c0,0.55 -0.45,1 -1,1z"></path></g></g></symbol><symbol id="info" xmlns="http://www.w3.org/2000/svg" x="0px" y="0px" viewBox="0,0,256,256"><g fill-rule="nonzero" stroke-width="1" stroke-linecap="butt" stroke-linejoin="miter" stroke-miterlimit="10" stroke-dasharray="0" stroke-dashoffset="0" font-family="none" font-weight="none" font-size="none" text-anchor="none" style="mix-blend-mode: normal"><g transform="scale(10.66667,10.66667)"><path d="M5,3c-1.105,0 -2,0.895 -2,2v14c0,1.105 0.895,2 2,2h4.51758l-0.01758,0.01758l1.61523,1.61719c0.488,0.488 1.28153,0.488 1.76953,0l1.61523,-1.61719l-0.01758,-0.01758h4.51758c1.105,0 2,-0.895 2,-2v-14c0,-1.105 -0.895,-2 -2,-2zM11.5,7h1c0.276,0 0.5,0.224 0.5,0.5v1c0,0.276 -0.224,0.5 -0.5,0.5h-1c-0.276,0 -0.5,-0.224 -0.5,-0.5v-1c0,-0.276 0.224,-0.5 0.5,-0.5zM12,11c0.552,0 1,0.448 1,1v4c0,0.552 -0.448,1 -1,1c-0.552,0 -1,-0.448 -1,-1v-4c0,-0.552 0.448,-1 1,-1z"></path></g></g></symbol><symbol id="minus" xmlns="http://www.w3.org/2000/svg" x="0px" y="0px" viewBox="0,0,256,256"><g fill-rule="nonzero" stroke-width="1" stroke-linecap="butt" stroke-linejoin="miter" stroke-miterlimit="10" stroke-dasharray="0" stroke-dashoffset="0" font-family="none" font-weight="none" font-size="none" text-anchor="none" style="mix-blend-mode: normal"><g transform="scale(10.66667,10.66667)"><path d="M12,2c-5.523,0 -10,4.477 -10,10c0,5.523 4.477,10 10,10c5.523,0 10,-4.477 10,-10c0,-5.523 -4.477,-10 -10,-10zM15,13h-6c-0.552,0 -1,-0.448 -1,-1c0,-0.552 0.448,-1 1,-1h6c0.552,0 1,0.448 1,1c0,0.552 -0.448,1 -1,1z"></path></g></g></symbol><symbol id="back" xmlns="http://www.w3.org/2000/svg" x="0px" y="0px" viewBox="0,0,256,256"><g fill-rule="nonzero" stroke-width="1" stroke-linecap="butt" stroke-linejoin="miter" stroke-miterlimit="10" stroke-dasharray="0" stroke-dashoffset="0" font-family="none" font-weight="none" font-size="none" text-anchor="none" style="mix-blend-mode: normal"><g transform="scale(10.66667,10.66667)"><path d="M10,5.3418c-0.25587,0 -0.51203,0.09942 -0.70703,0.29492l-5.65625,5.65625c-0.391,0.391 -0.391,1.02406 0,1.41406l5.65625,5.65625c0.391,0.391 1.02406,0.391 1.41406,0l0.08594,-0.08594c0.391,-0.391 0.391,-1.02406 0,-1.41406l-3.86328,-3.86328h13.07031c0.552,0 1,-0.448 1,-1c0,-0.552 -0.448,-1 -1,-1h-13.07031l3.86328,-3.86328c0.391,-0.391 0.391,-1.02406 0,-1.41406l-0.08594,-0.08594c-0.1955,-0.1955 -0.45116,-0.29492 -0.70703,-0.29492z"></path></g></g></symbol><symbol id="next" xmlns="http://www.w3.org/2000/svg" x="0px" y="0px" viewBox="0,0,256,256"><g fill-rule="nonzero" stroke-width="1" stroke-linecap="butt" stroke-linejoin="miter" stroke-miterlimit="10" stroke-dasharray="0" stroke-dashoffset="0" font-family="none" font-weight="none" font-size="none" text-anchor="none" style="mix-blend-mode: normal"><g transform="scale(10.66667,10.66667)"><path d="M14,5.3418c-0.25587,0 -0.51203,0.09942 -0.70703,0.29492l-0.08594,0.08594c-0.391,0.391 -0.391,1.02406 0,1.41406l3.86328,3.86328h-13.07031c-0.552,0 -1,0.448 -1,1c0,0.552 0.448,1 1,1h13.07031l-3.86328,3.86328c-0.391,0.391 -0.391,1.02406 0,1.41406l0.08594,0.08594c0.391,0.391 1.02406,0.391 1.41406,0l5.65625,-5.65625c0.391,-0.391 0.391,-1.02406 0,-1.41406l-5.65625,-5.65625c-0.1955,-0.1955 -0.45116,-0.29492 -0.70703,-0.29492z"></path></g></g></symbol><symbol id="place" xmlns="http://www.w3.org/2000/svg" x="0px" y="0px" viewBox="0,0,256,256"><g fill-rule="nonzero" stroke-width="1" stroke-linecap="butt" stroke-linejoin="miter" stroke-miterlimit="10" stroke-dasharray="0" stroke-dashoffset="0" font-family="none" font-weight="none" font-size="none" text-anchor="none" style="mix-blend-mode: normal"><g transform="scale(10.66667,10.66667)"><path d="M12,1c-3.314,0 -6,2.686 -6,6c0,3.323 3.60656,8.10589 5.22656,10.08789c0.401,0.49 1.14392,0.49 1.54492,0c1.621,-1.982 5.22852,-6.76489 5.22852,-10.08789c0,-3.314 -2.686,-6 -6,-6zM12,4.85742c1.184,0 2.14258,0.95858 2.14258,2.14258c0,1.183 -0.95958,2.14258 -2.14258,2.14258c-1.183,0 -2.14258,-0.95858 -2.14258,-2.14258c0,-1.184 0.95858,-2.14258 2.14258,-2.14258zM6.99414,15.56445c-0.0769,0.00028 -0.15575,0.00992 -0.23437,0.0293c-2.855,0.705 -4.75977,1.96625 -4.75977,3.40625c0,2.209 4.477,4 10,4c5.523,0 10,-1.791 10,-4c0,-1.44 -1.90477,-2.7003 -4.75977,-3.4043c-0.629,-0.155 -1.24023,0.33052 -1.24023,0.97852c0,0.454 0.30219,0.85975 0.74219,0.96875c1.805,0.448 2.90203,1.06908 3.20703,1.45508c-0.515,0.655 -3.25522,2 -7.94922,2c-4.694,0 -7.43422,-1.345 -7.94922,-2c0.304,-0.387 1.40203,-1.00708 3.20703,-1.45508c0.44,-0.108 0.74219,-0.51475 0.74219,-0.96875c0,-0.56788 -0.46753,-1.01171 -1.00586,-1.00977z"></path></g></g></symbol><symbol id="plus" xmlns="http://www.w3.org/2000/svg" x="0px" y="0px" viewBox="0,0,256,256"><g fill-rule="nonzero" stroke-width="1" stroke-linecap="butt" stroke-linejoin="miter" stroke-miterlimit="10" stroke-dasharray="0" stroke-dashoffset="0" font-family="none" font-weight="none" font-size="none" text-anchor="none" style="mix-blend-mode: normal"><g transform="scale(10.66667,10.66667)"><path d="M12,2c-5.523,0 -10,4.477 -10,10c0,5.523 4.477,10 10,10c5.523,0 10,-4.477 10,-10c0,-5.523 -4.477,-10 -10,-10zM16,13h-3v3c0,0.552 -0.448,1 -1,1v0c-0.552,0 -1,-0.448 -1,-1v-3h-3c-0.552,0 -1,-0.448 -1,-1v0c0,-0.552 0.448,-1 1,-1h3v-3c0,-0.552 0.448,-1 1,-1v0c0.552,0 1,0.448 1,1v3h3c0.552,0 1,0.448 1,1v0c0,0.552 -0.448,1 -1,1z"></path></g></g></symbol><symbol id="thumbs-up" xmlns="http://www.w3.org/2000/svg" x="0px" y="0px" viewBox="0,0,256,256" style="fill:currentColor;"><g fill-rule="nonzero" stroke-width="1" stroke-linecap="butt" stroke-linejoin="miter" stroke-miterlimit="10" stroke-dasharray="0" stroke-dashoffset="0" font-family="none" font-weight="none" font-size="none" text-anchor="none" style="mix-blend-mode: normal"><g transform="scale(10.66667,10.66667)"><path d="M14.16992,1.61328c-0.38237,0.00175 -0.76514,0.14941 -1.05664,0.44141l-5.5293,5.54102c-0.374,0.375 -0.58398,0.88211 -0.58398,1.41211v9.99219c0,1.105 0.895,2 2,2h8.99219c0.799,0 1.52189,-0.47594 1.83789,-1.21094l3.00781,-7.00195c0.107,-0.249 0.16211,-0.51806 0.16211,-0.78906v-1.99805c0,-1.105 -0.895,-2 -2,-2h-6.35156l0.99414,-4.56445c0.11,-0.504 -0.04706,-1.02962 -0.41406,-1.39062c-0.294,-0.289 -0.67622,-0.43339 -1.05859,-0.43164zM2,9c-0.552,0 -1,0.448 -1,1v10c0,0.552 0.448,1 1,1h2c0.552,0 1,-0.448 1,-1v-10c0,-0.552 -0.448,-1 -1,-1z"></path></g></g></symbol><symbol id="tick" xmlns="http://www.w3.org/2000/svg" x="0px" y="0px" viewBox="0,0,256,256"><g fill-rule="nonzero" stroke-width="1" stroke-linecap="butt" stroke-linejoin="miter" stroke-miterlimit="10" stroke-dasharray="0" stroke-dashoffset="0" font-family="none" font-weight="none" font-size="none" text-anchor="none" style="mix-blend-mode: normal"><g transform="scale(10.66667,10.66667)"><path d="M11.707,15.707c-0.195,0.195 -0.451,0.293 -0.707,0.293c-0.256,0 -0.512,-0.098 -0.707,-0.293l-4,-4c-0.391,-0.391 -0.391,-1.023 0,-1.414c0.391,-0.391 1.023,-0.391 1.414,0l3.293,3.293l8.35,-8.35c-1.827,-1.985 -4.439,-3.236 -7.35,-3.236c-5.523,0 -10,4.477 -10,10c0,5.523 4.477,10 10,10c5.523,0 10,-4.477 10,-10c0,-1.885 -0.531,-3.642 -1.438,-5.148z"></path></g></g></symbol><symbol id="qr-code" xmlns="http://www.w3.org/2000/svg" x="0px" y="0px" viewBox="0,0,256,256"><g fill-rule="nonzero" stroke-width="1" stroke-linecap="butt" stroke-linejoin="miter" stroke-miterlimit="10" stroke-dasharray="0" stroke-dashoffset="0" font-family="none" font-weight="none" font-size="none" text-anchor="none" style="mix-blend-mode: normal"><g transform="scale(10.66667,10.66667)"><path d="M4,3c-0.552,0 -1,0.448 -1,1v4c0,0.552 0.448,1 1,1h4c0.552,0 1,-0.448 1,-1v-4c0,-0.552 -0.448,-1 -1,-1zM11,3v2h2v-2zM16,3c-0.552,0 -1,0.448 -1,1v4c0,0.552 0.448,1 1,1h4c0.552,0 1,-0.448 1,-1v-4c0,-0.552 -0.448,-1 -1,-1zM5,5h2v2h-2zM17,5h2v2h-2zM11,7v2h2v-2zM3,11v2h2v-2zM7,11v2h2v-2zM11,11v2h2v-2zM13,13v2h2v-2zM15,13h2v-2h-2zM17,13v2h2v-2zM19,13h2v-2h-2zM19,15v2h2v-2zM19,17h-2v2h2zM19,19v2h2v-2zM17,19h-2v2h2zM15,19v-2h-2v2zM13,19h-2v2h2zM13,17v-2h-2v2zM15,17h2v-2h-2zM4,15c-0.552,0 -1,0.448 -1,1v4c0,0.552 0.448,1 1,1h4c0.552,0 1,-0.448 1,-1v-4c0,-0.552 -0.448,-1 -1,-1zM5,17h2v2h-2z"></path></g></g></symbol></svg>